<svg xmlns = "http://www.w3.org/2000/svg" width = "1000" height = "1000">
<g>
<polygon points = "26.043, 933.676 54.753, 879.172 22.538, 782.334 0.000, 767.999 0.000, 933.793 "
fill = "none" stroke = "black"/>
</g>
<g>
<polygon points = "726.326, 537.604 725.470, 538.797 757.490, 608.301 761.387, 608.885 769.688, 540.478 "
fill = "none" stroke = "black"/>
</g>
<g>
<polygon points = "592.926, 759.853 594.184, 719.537 484.391, 737.612 461.152, 778.175 461.442, 791.410 527.613, 822.006 561.502, 810.817 "
fill = "none" stroke = "black"/>
</g>
<g>
<polygon points = "97.788, 282.362 94.313, 268.291 34.186, 307.465 16.307, 365.588 54.197, 361.173 97.795, 282.665 "
fill = "none" stroke = "black"/>
</g>
<g>
<polygon points = "633.743, 59.081 634.261, 70.082 643.204, 78.609 704.309, 77.907 685.410, 0.000 647.466, 0.000 "
fill = "none" stroke = "black"/>
</g>
<g>
<polygon points = "361.623, 430.872 358.003, 434.706 373.712, 517.786 375.251, 518.565 423.561, 512.229 433.689, 446.193 "
fill = "none" stroke = "black"/>
</g>
<g>
<polygon points = "827.000, 974.966 879.095, 979.550 858.982, 919.005 814.260, 920.556 816.535, 963.347 "
fill = "none" stroke = "black"/>
</g>
<g>
<polygon points = "53.340, 538.983 93.684, 521.553 94.060, 494.831 30.007, 434.957 0.000, 433.652 0.000, 515.659 "
fill = "none" stroke = "black"/>
</g>
<g>
<polygon points = "700.210, 948.065 570.658, 987.198 565.389, 1000.000 708.596, 1000.000 "
fill = "none" stroke = "black"/>
</g>
<g>
<polygon points = "422.999, 951.949 423.937, 906.445 379.951, 881.239 335.234, 892.074 326.930, 967.787 332.090, 1000.000 368.158, 1000.000 "
fill = "none" stroke = "black"/>
</g>
<g>
<polygon points = "457.840, 363.089 470.457, 313.620 449.529, 302.638 372.569, 310.573 367.153, 339.904 370.907, 346.317 "
fill = "none" stroke = "black"/>
</g>
<g>
<polygon points = "561.667, 55.814 571.458, 89.134 578.931, 95.608 601.412, 100.724 634.261, 70.082 633.743, 59.081 "
fill = "none" stroke = "black"/>
</g>
<g>
<polygon points = "836.230, 527.859 862.844, 517.075 864.172, 513.608 868.526, 424.200 861.853, 422.764 804.488, 485.871 804.575, 494.825 811.582, 506.174 "
fill = "none" stroke = "black"/>
</g>
<g>
<polygon points = "105.761, 394.058 111.988, 312.869 97.795, 282.665 54.197, 361.173 "
fill = "none" stroke = "black"/>
</g>
<g>
<polygon points = "374.058, 239.107 372.569, 310.573 449.529, 302.638 "
fill = "none" stroke = "black"/>
</g>
<g>
<polygon points = "844.535, 221.168 919.667, 287.426 954.566, 174.387 932.152, 158.577 850.064, 187.116 "
fill = "none" stroke = "black"/>
</g>
<g>
<polygon points = "326.930, 967.787 258.577, 930.413 241.450, 928.952 213.953, 943.597 243.723, 1000.000 332.090, 1000.000 "
fill = "none" stroke = "black"/>
</g>
<g>
<polygon points = "713.532, 619.759 699.470, 679.304 705.680, 685.474 803.497, 662.156 814.810, 628.674 761.387, 608.885 757.490, 608.301 "
fill = "none" stroke = "black"/>
</g>
<g>
<polygon points = "612.453, 298.538 651.905, 279.947 663.192, 268.215 665.478, 226.317 657.478, 213.103 605.601, 225.337 "
fill = "none" stroke = "black"/>
</g>
<g>
<polygon points = "964.249, 617.029 916.197, 663.560 925.643, 680.927 940.807, 687.351 1000.000, 689.048 1000.000, 610.663 "
fill = "none" stroke = "black"/>
</g>
<g>
<polygon points = "219.056, 47.353 234.617, 58.562 271.905, 0.000 219.644, 0.000 "
fill = "none" stroke = "black"/>
</g>
<g>
<polygon points = "709.818, 270.142 747.912, 251.651 730.777, 212.137 709.125, 226.072 "
fill = "none" stroke = "black"/>
</g>
<g>
<polygon points = "573.134, 933.846 570.658, 987.198 700.210, 948.065 706.232, 937.929 641.367, 867.896 608.313, 883.919 588.600, 908.831 "
fill = "none" stroke = "black"/>
</g>
<g>
<polygon points = "601.412, 100.724 605.537, 128.548 610.572, 133.817 670.265, 143.310 673.570, 138.749 643.204, 78.609 634.261, 70.082 "
fill = "none" stroke = "black"/>
</g>
<g>
<polygon points = "301.204, 559.852 285.706, 528.337 283.229, 529.316 245.091, 553.014 242.325, 569.466 293.984, 577.805 "
fill = "none" stroke = "black"/>
</g>
<g>
<polygon points = "743.526, 499.776 740.187, 515.581 770.684, 536.556 811.582, 506.174 804.575, 494.825 "
fill = "none" stroke = "black"/>
</g>
<g>
<polygon points = "183.979, 737.606 186.125, 740.300 266.163, 771.504 300.872, 753.737 309.643, 698.575 201.408, 714.353 "
fill = "none" stroke = "black"/>
</g>
<g>
<polygon points = "397.206, 833.862 370.573, 812.082 326.723, 806.341 315.581, 874.263 335.234, 892.074 379.951, 881.239 "
fill = "none" stroke = "black"/>
</g>
<g>
<polygon points = "505.904, 61.472 431.422, 106.715 441.166, 119.633 518.893, 122.109 520.635, 104.969 "
fill = "none" stroke = "black"/>
</g>
<g>
<polygon points = "928.746, 933.604 904.293, 862.095 858.982, 919.005 879.095, 979.550 890.760, 1000.000 906.845, 1000.000 "
fill = "none" stroke = "black"/>
</g>
<g>
<polygon points = "929.666, 540.947 941.149, 535.726 953.383, 440.614 946.961, 438.274 864.172, 513.608 862.844, 517.075 "
fill = "none" stroke = "black"/>
</g>
<g>
<polygon points = "586.921, 629.641 482.253, 654.695 457.513, 669.221 484.391, 737.612 594.184, 719.537 600.153, 711.753 "
fill = "none" stroke = "black"/>
</g>
<g>
<polygon points = "953.383, 440.614 941.149, 535.726 967.232, 547.934 1000.000, 549.217 1000.000, 428.763 "
fill = "none" stroke = "black"/>
</g>
<g>
<polygon points = "255.027, 888.428 241.450, 928.952 258.577, 930.413 312.090, 873.987 307.631, 872.914 "
fill = "none" stroke = "black"/>
</g>
<g>
<polygon points = "906.893, 857.481 905.309, 859.734 904.293, 862.095 928.746, 933.604 1000.000, 954.031 1000.000, 904.540 "
fill = "none" stroke = "black"/>
</g>
<g>
<polygon points = "588.735, 622.023 492.438, 586.196 482.253, 654.695 586.921, 629.641 "
fill = "none" stroke = "black"/>
</g>
<g>
<polygon points = "366.167, 54.035 360.709, 41.516 239.068, 64.146 237.783, 99.518 331.305, 147.123 369.336, 76.119 "
fill = "none" stroke = "black"/>
</g>
<g>
<polygon points = "545.480, 559.839 526.126, 517.712 500.910, 514.228 483.748, 538.409 "
fill = "none" stroke = "black"/>
</g>
<g>
<polygon points = "928.746, 933.604 906.845, 1000.000 1000.000, 1000.000 1000.000, 954.031 "
fill = "none" stroke = "black"/>
</g>
<g>
<polygon points = "753.823, 254.988 759.155, 253.516 779.692, 234.767 743.007, 193.541 735.077, 200.670 730.777, 212.137 747.912, 251.651 "
fill = "none" stroke = "black"/>
</g>
<g>
<polygon points = "904.293, 862.095 905.309, 859.734 771.916, 857.519 769.645, 908.274 814.260, 920.556 858.982, 919.005 "
fill = "none" stroke = "black"/>
</g>
<g>
<polygon points = "0.000, 289.850 0.000, 372.920 16.307, 365.588 34.186, 307.465 "
fill = "none" stroke = "black"/>
</g>
<g>
<polygon points = "911.653, 416.864 910.488, 386.562 839.556, 327.512 816.132, 348.056 816.121, 388.181 861.853, 422.764 868.526, 424.200 "
fill = "none" stroke = "black"/>
</g>
<g>
<polygon points = "706.842, 274.463 730.156, 321.927 734.435, 327.053 757.213, 320.450 753.823, 254.988 747.912, 251.651 709.818, 270.142 "
fill = "none" stroke = "black"/>
</g>
<g>
<polygon points = "976.075, 81.728 932.607, 116.591 932.152, 158.577 954.566, 174.387 1000.000, 188.669 1000.000, 77.254 "
fill = "none" stroke = "black"/>
</g>
<g>
<polygon points = "313.405, 688.771 265.859, 669.689 204.445, 700.194 201.408, 714.353 309.643, 698.575 "
fill = "none" stroke = "black"/>
</g>
<g>
<polygon points = "334.901, 447.138 332.394, 510.976 343.277, 517.042 373.712, 517.786 358.003, 434.706 "
fill = "none" stroke = "black"/>
</g>
<g>
<polygon points = "606.980, 164.563 610.572, 133.817 605.537, 128.548 587.380, 137.095 590.766, 169.857 "
fill = "none" stroke = "black"/>
</g>
<g>
<polygon points = "357.258, 219.649 371.377, 228.050 391.002, 223.141 445.178, 135.337 441.166, 119.633 431.422, 106.715 369.336, 76.119 331.305, 147.123 329.309, 163.833 329.112, 177.077 "
fill = "none" stroke = "black"/>
</g>
<g>
<polygon points = "225.887, 598.333 295.699, 614.522 293.984, 577.805 242.325, 569.466 "
fill = "none" stroke = "black"/>
</g>
<g>
<polygon points = "612.009, 585.242 614.222, 556.741 568.453, 513.759 526.126, 517.712 545.480, 559.839 606.286, 591.367 "
fill = "none" stroke = "black"/>
</g>
<g>
<polygon points = "242.274, 821.264 307.631, 872.914 312.090, 873.987 315.581, 874.263 326.723, 806.341 307.322, 760.779 300.872, 753.737 266.163, 771.504 "
fill = "none" stroke = "black"/>
</g>
<g>
<polygon points = "169.190, 378.715 125.996, 393.371 162.423, 457.532 199.884, 473.512 228.116, 440.096 "
fill = "none" stroke = "black"/>
</g>
<g>
<polygon points = "816.535, 963.347 814.260, 920.556 769.645, 908.274 759.135, 917.740 778.059, 1000.000 789.174, 1000.000 "
fill = "none" stroke = "black"/>
</g>
<g>
<polygon points = "562.381, 498.475 504.061, 487.597 500.910, 514.228 526.126, 517.712 568.453, 513.759 "
fill = "none" stroke = "black"/>
</g>
<g>
<polygon points = "954.566, 174.387 919.667, 287.426 925.546, 302.929 931.281, 307.004 1000.000, 259.759 1000.000, 188.669 "
fill = "none" stroke = "black"/>
</g>
<g>
<polygon points = "520.635, 104.969 518.893, 122.109 534.692, 157.972 542.700, 152.190 578.931, 95.608 571.458, 89.134 "
fill = "none" stroke = "black"/>
</g>
<g>
<polygon points = "665.375, 174.149 670.265, 143.310 610.572, 133.817 606.980, 164.563 619.569, 177.141 661.110, 180.568 "
fill = "none" stroke = "black"/>
</g>
<g>
<polygon points = "150.061, 812.340 187.364, 824.556 186.125, 740.300 183.979, 737.606 148.623, 730.477 127.555, 753.909 "
fill = "none" stroke = "black"/>
</g>
<g>
<polygon points = "754.557, 785.268 735.830, 788.016 671.892, 835.553 746.367, 920.837 759.135, 917.740 769.645, 908.274 771.916, 857.519 "
fill = "none" stroke = "black"/>
</g>
<g>
<polygon points = "67.873, 781.856 127.555, 753.909 148.623, 730.477 120.396, 671.392 0.000, 697.828 0.000, 767.999 22.538, 782.334 "
fill = "none" stroke = "black"/>
</g>
<g>
<polygon points = "39.168, 607.213 53.274, 563.980 53.340, 538.983 0.000, 515.659 0.000, 661.671 "
fill = "none" stroke = "black"/>
</g>
<g>
<polygon points = "95.518, 212.046 66.032, 194.554 0.000, 194.038 0.000, 289.850 34.186, 307.465 94.313, 268.291 "
fill = "none" stroke = "black"/>
</g>
<g>
<polygon points = "978.312, 796.099 940.807, 687.351 925.643, 680.927 868.318, 781.440 907.969, 834.294 "
fill = "none" stroke = "black"/>
</g>
<g>
<polygon points = "202.574, 630.529 196.382, 621.369 125.050, 660.698 120.396, 671.392 148.623, 730.477 183.979, 737.606 201.408, 714.353 204.445, 700.194 "
fill = "none" stroke = "black"/>
</g>
<g>
<polygon points = "933.074, 311.301 931.281, 307.004 925.546, 302.929 840.022, 326.773 839.556, 327.512 910.488, 386.562 "
fill = "none" stroke = "black"/>
</g>
<g>
<polygon points = "197.683, 322.992 97.788, 282.362 97.795, 282.665 111.988, 312.869 172.467, 360.346 "
fill = "none" stroke = "black"/>
</g>
<g>
<polygon points = "329.545, 673.382 330.415, 673.487 385.242, 671.618 430.907, 655.767 430.827, 587.748 367.569, 580.044 357.776, 585.547 326.894, 654.148 "
fill = "none" stroke = "black"/>
</g>
<g>
<polygon points = "516.047, 887.373 527.655, 825.831 527.613, 822.006 461.442, 791.410 460.567, 792.819 458.701, 796.517 465.310, 884.334 "
fill = "none" stroke = "black"/>
</g>
<g>
<polygon points = "530.857, 184.639 534.654, 196.311 590.766, 169.857 587.380, 137.095 542.700, 152.190 534.692, 157.972 "
fill = "none" stroke = "black"/>
</g>
<g>
<polygon points = "528.202, 16.638 561.667, 55.814 633.743, 59.081 647.466, 0.000 528.952, 0.000 "
fill = "none" stroke = "black"/>
</g>
<g>
<polygon points = "527.655, 825.831 588.600, 908.831 608.313, 883.919 561.502, 810.817 527.613, 822.006 "
fill = "none" stroke = "black"/>
</g>
<g>
<polygon points = "967.232, 547.934 964.249, 617.029 1000.000, 610.663 1000.000, 549.217 "
fill = "none" stroke = "black"/>
</g>
<g>
<polygon points = "104.811, 447.250 162.423, 457.532 125.996, 393.371 107.662, 396.578 97.764, 421.943 "
fill = "none" stroke = "black"/>
</g>
<g>
<polygon points = "191.949, 496.663 192.510, 497.146 283.229, 529.316 285.706, 528.337 290.925, 515.432 264.811, 451.902 240.166, 437.400 228.116, 440.096 199.884, 473.512 "
fill = "none" stroke = "black"/>
</g>
<g>
<polygon points = "420.230, 42.662 507.200, 56.511 528.202, 16.638 528.952, 0.000 508.363, 0.000 "
fill = "none" stroke = "black"/>
</g>
<g>
<polygon points = "117.723, 826.793 150.061, 812.340 127.555, 753.909 67.873, 781.856 "
fill = "none" stroke = "black"/>
</g>
<g>
<polygon points = "370.907, 346.317 367.153, 339.904 306.630, 331.352 289.957, 386.127 355.630, 399.710 "
fill = "none" stroke = "black"/>
</g>
<g>
<polygon points = "172.467, 360.346 111.988, 312.869 105.761, 394.058 107.662, 396.578 125.996, 393.371 169.190, 378.715 "
fill = "none" stroke = "black"/>
</g>
<g>
<polygon points = "661.110, 180.568 619.569, 177.141 593.168, 215.845 605.601, 225.337 657.478, 213.103 "
fill = "none" stroke = "black"/>
</g>
<g>
<polygon points = "245.091, 553.014 283.229, 529.316 192.510, 497.146 "
fill = "none" stroke = "black"/>
</g>
<g>
<polygon points = "378.103, 790.083 370.573, 812.082 397.206, 833.862 458.701, 796.517 460.567, 792.819 "
fill = "none" stroke = "black"/>
</g>
<g>
<polygon points = "0.000, 194.038 66.032, 194.554 92.793, 22.863 81.384, 0.000 0.000, 0.000 "
fill = "none" stroke = "black"/>
</g>
<g>
<polygon points = "397.206, 833.862 379.951, 881.239 423.937, 906.445 461.718, 888.336 465.310, 884.334 458.701, 796.517 "
fill = "none" stroke = "black"/>
</g>
<g>
<polygon points = "967.232, 547.934 941.149, 535.726 929.666, 540.947 885.789, 639.379 916.197, 663.560 964.249, 617.029 "
fill = "none" stroke = "black"/>
</g>
<g>
<polygon points = "105.882, 30.996 92.793, 22.863 66.032, 194.554 95.518, 212.046 122.638, 207.560 166.817, 141.084 "
fill = "none" stroke = "black"/>
</g>
<g>
<polygon points = "117.215, 877.328 117.723, 826.793 67.873, 781.856 22.538, 782.334 54.753, 879.172 "
fill = "none" stroke = "black"/>
</g>
<g>
<polygon points = "120.396, 671.392 125.050, 660.698 114.253, 639.177 39.168, 607.213 0.000, 661.671 0.000, 697.828 "
fill = "none" stroke = "black"/>
</g>
<g>
<polygon points = "197.267, 854.850 255.027, 888.428 307.631, 872.914 242.274, 821.264 200.314, 842.237 "
fill = "none" stroke = "black"/>
</g>
<g>
<polygon points = "820.637, 626.283 836.230, 527.859 811.582, 506.174 770.684, 536.556 769.688, 540.478 761.387, 608.885 814.810, 628.674 "
fill = "none" stroke = "black"/>
</g>
<g>
<polygon points = "330.351, 561.478 357.776, 585.547 367.569, 580.044 375.251, 518.565 373.712, 517.786 343.277, 517.042 "
fill = "none" stroke = "black"/>
</g>
<g>
<polygon points = "756.588, 117.531 778.880, 139.186 797.805, 143.294 877.646, 34.162 873.860, 0.000 774.020, 0.000 "
fill = "none" stroke = "black"/>
</g>
<g>
<polygon points = "656.159, 843.304 671.892, 835.553 735.830, 788.016 608.379, 712.933 600.153, 711.753 594.184, 719.537 592.926, 759.853 "
fill = "none" stroke = "black"/>
</g>
<g>
<polygon points = "673.570, 138.749 737.054, 115.537 704.309, 77.907 643.204, 78.609 "
fill = "none" stroke = "black"/>
</g>
<g>
<polygon points = "329.309, 163.833 331.305, 147.123 237.783, 99.518 212.125, 122.782 222.834, 142.440 "
fill = "none" stroke = "black"/>
</g>
<g>
<polygon points = "454.982, 553.836 459.270, 553.668 483.748, 538.409 500.910, 514.228 504.061, 487.597 500.717, 461.499 494.278, 434.581 476.327, 416.496 433.689, 446.193 423.561, 512.229 "
fill = "none" stroke = "black"/>
</g>
<g>
<polygon points = "593.168, 215.845 619.569, 177.141 606.980, 164.563 590.766, 169.857 534.654, 196.311 534.953, 199.956 "
fill = "none" stroke = "black"/>
</g>
<g>
<polygon points = "770.684, 536.556 740.187, 515.581 726.326, 537.604 769.688, 540.478 "
fill = "none" stroke = "black"/>
</g>
<g>
<polygon points = "933.074, 311.301 910.488, 386.562 911.653, 416.864 946.961, 438.274 953.383, 440.614 1000.000, 428.763 1000.000, 354.010 "
fill = "none" stroke = "black"/>
</g>
<g>
<polygon points = "428.772, 222.859 466.838, 163.377 445.178, 135.337 391.002, 223.141 "
fill = "none" stroke = "black"/>
</g>
<g>
<polygon points = "676.380, 305.811 730.156, 321.927 706.842, 274.463 663.192, 268.215 651.905, 279.947 "
fill = "none" stroke = "black"/>
</g>
<g>
<polygon points = "976.075, 81.728 1000.000, 77.254 1000.000, 0.000 960.027, 0.000 "
fill = "none" stroke = "black"/>
</g>
<g>
<polygon points = "778.843, 765.859 868.318, 781.440 925.643, 680.927 916.197, 663.560 885.789, 639.379 820.637, 626.283 814.810, 628.674 803.497, 662.156 "
fill = "none" stroke = "black"/>
</g>
<g>
<polygon points = "561.897, 492.805 500.717, 461.499 504.061, 487.597 562.381, 498.475 "
fill = "none" stroke = "black"/>
</g>
<g>
<polygon points = "53.274, 563.980 110.086, 614.408 147.538, 536.554 93.684, 521.553 53.340, 538.983 "
fill = "none" stroke = "black"/>
</g>
<g>
<polygon points = "542.700, 152.190 587.380, 137.095 605.537, 128.548 601.412, 100.724 578.931, 95.608 "
fill = "none" stroke = "black"/>
</g>
<g>
<polygon points = "476.432, 306.884 477.459, 240.265 428.772, 222.859 391.002, 223.141 371.377, 228.050 374.058, 239.107 449.529, 302.638 470.457, 313.620 "
fill = "none" stroke = "black"/>
</g>
<g>
<polygon points = "842.083, 224.488 830.654, 256.259 840.022, 326.773 925.546, 302.929 919.667, 287.426 844.535, 221.168 "
fill = "none" stroke = "black"/>
</g>
<g>
<polygon points = "816.132, 348.056 839.556, 327.512 840.022, 326.773 830.654, 256.259 795.665, 271.711 758.528, 320.576 "
fill = "none" stroke = "black"/>
</g>
<g>
<polygon points = "759.135, 917.740 746.367, 920.837 706.232, 937.929 700.210, 948.065 708.596, 1000.000 778.059, 1000.000 "
fill = "none" stroke = "black"/>
</g>
<g>
<polygon points = "911.653, 416.864 868.526, 424.200 864.172, 513.608 946.961, 438.274 "
fill = "none" stroke = "black"/>
</g>
<g>
<polygon points = "508.408, 990.984 461.718, 888.336 423.937, 906.445 422.999, 951.949 "
fill = "none" stroke = "black"/>
</g>
<g>
<polygon points = "740.187, 515.581 743.526, 499.776 696.299, 437.347 679.475, 442.459 658.300, 456.242 649.218, 495.797 722.192, 538.447 725.470, 538.797 726.326, 537.604 "
fill = "none" stroke = "black"/>
</g>
<g>
<polygon points = "594.840, 320.094 636.168, 343.489 637.774, 343.428 675.262, 316.951 676.380, 305.811 651.905, 279.947 612.453, 298.538 "
fill = "none" stroke = "black"/>
</g>
<g>
<polygon points = "167.888, 53.292 193.767, 124.088 212.125, 122.782 237.783, 99.518 239.068, 64.146 234.617, 58.562 219.056, 47.353 "
fill = "none" stroke = "black"/>
</g>
<g>
<polygon points = "877.646, 34.162 797.805, 143.294 850.064, 187.116 932.152, 158.577 932.607, 116.591 "
fill = "none" stroke = "black"/>
</g>
<g>
<polygon points = "573.134, 933.846 588.600, 908.831 527.655, 825.831 516.047, 887.373 "
fill = "none" stroke = "black"/>
</g>
<g>
<polygon points = "360.709, 41.516 366.167, 54.035 420.230, 42.662 508.363, 0.000 356.353, 0.000 "
fill = "none" stroke = "black"/>
</g>
<g>
<polygon points = "150.931, 536.525 198.002, 614.266 225.887, 598.333 242.325, 569.466 245.091, 553.014 192.510, 497.146 191.949, 496.663 "
fill = "none" stroke = "black"/>
</g>
<g>
<polygon points = "264.811, 451.902 290.925, 515.432 332.394, 510.976 334.901, 447.138 "
fill = "none" stroke = "black"/>
</g>
<g>
<polygon points = "885.789, 639.379 929.666, 540.947 862.844, 517.075 836.230, 527.859 820.637, 626.283 "
fill = "none" stroke = "black"/>
</g>
<g>
<polygon points = "530.863, 208.509 534.953, 199.956 534.654, 196.311 530.857, 184.639 466.838, 163.377 428.772, 222.859 477.459, 240.265 "
fill = "none" stroke = "black"/>
</g>
<g>
<polygon points = "378.103, 790.083 374.235, 768.013 307.322, 760.779 326.723, 806.341 370.573, 812.082 "
fill = "none" stroke = "black"/>
</g>
<g>
<polygon points = "979.604, 796.116 1000.000, 876.251 1000.000, 793.915 "
fill = "none" stroke = "black"/>
</g>
<g>
<polygon points = "589.343, 322.046 576.299, 354.897 604.535, 431.137 658.300, 456.242 679.475, 442.459 636.168, 343.489 594.840, 320.094 "
fill = "none" stroke = "black"/>
</g>
<g>
<polygon points = "26.043, 933.676 0.000, 933.793 0.000, 1000.000 83.123, 1000.000 "
fill = "none" stroke = "black"/>
</g>
<g>
<polygon points = "757.213, 320.450 758.528, 320.576 795.665, 271.711 759.155, 253.516 753.823, 254.988 "
fill = "none" stroke = "black"/>
</g>
<g>
<polygon points = "326.894, 654.148 357.776, 585.547 330.351, 561.478 301.204, 559.852 293.984, 577.805 295.699, 614.522 "
fill = "none" stroke = "black"/>
</g>
<g>
<polygon points = "675.262, 316.951 687.005, 346.031 717.339, 354.381 734.435, 327.053 730.156, 321.927 676.380, 305.811 "
fill = "none" stroke = "black"/>
</g>
<g>
<polygon points = "198.151, 233.522 227.151, 166.134 222.834, 142.440 212.125, 122.782 193.767, 124.088 166.817, 141.084 122.638, 207.560 "
fill = "none" stroke = "black"/>
</g>
<g>
<polygon points = "737.054, 115.537 673.570, 138.749 670.265, 143.310 665.375, 174.149 735.077, 200.670 743.007, 193.541 778.880, 139.186 756.588, 117.531 "
fill = "none" stroke = "black"/>
</g>
<g>
<polygon points = "162.560, 927.636 166.120, 922.609 163.673, 905.508 117.215, 877.328 54.753, 879.172 26.043, 933.676 83.123, 1000.000 89.389, 1000.000 "
fill = "none" stroke = "black"/>
</g>
<g>
<polygon points = "816.121, 388.181 816.132, 348.056 758.528, 320.576 757.213, 320.450 734.435, 327.053 717.339, 354.381 714.599, 421.477 765.907, 422.189 "
fill = "none" stroke = "black"/>
</g>
<g>
<polygon points = "187.364, 824.556 200.314, 842.237 242.274, 821.264 266.163, 771.504 186.125, 740.300 "
fill = "none" stroke = "black"/>
</g>
<g>
<polygon points = "110.086, 614.408 53.274, 563.980 39.168, 607.213 114.253, 639.177 "
fill = "none" stroke = "black"/>
</g>
<g>
<polygon points = "877.646, 34.162 932.607, 116.591 976.075, 81.728 960.027, 0.000 873.860, 0.000 "
fill = "none" stroke = "black"/>
</g>
<g>
<polygon points = "419.346, 757.547 385.242, 671.618 330.415, 673.487 394.290, 757.490 "
fill = "none" stroke = "black"/>
</g>
<g>
<polygon points = "608.379, 712.933 735.830, 788.016 754.557, 785.268 765.649, 773.308 705.680, 685.474 699.470, 679.304 "
fill = "none" stroke = "black"/>
</g>
<g>
<polygon points = "743.007, 193.541 779.692, 234.767 842.083, 224.488 844.535, 221.168 850.064, 187.116 797.805, 143.294 778.880, 139.186 "
fill = "none" stroke = "black"/>
</g>
<g>
<polygon points = "457.513, 669.221 430.907, 655.767 385.242, 671.618 419.346, 757.547 461.152, 778.175 484.391, 737.612 "
fill = "none" stroke = "black"/>
</g>
<g>
<polygon points = "213.953, 943.597 166.120, 922.609 162.560, 927.636 184.986, 1000.000 243.723, 1000.000 "
fill = "none" stroke = "black"/>
</g>
<g>
<polygon points = "92.793, 22.863 105.882, 30.996 167.888, 53.292 219.056, 47.353 219.644, 0.000 81.384, 0.000 "
fill = "none" stroke = "black"/>
</g>
<g>
<polygon points = "209.067, 241.585 328.436, 177.323 227.151, 166.134 198.151, 233.522 "
fill = "none" stroke = "black"/>
</g>
<g>
<polygon points = "198.002, 614.266 150.931, 536.525 147.538, 536.554 110.086, 614.408 114.253, 639.177 125.050, 660.698 196.382, 621.369 "
fill = "none" stroke = "black"/>
</g>
<g>
<polygon points = "608.313, 883.919 641.367, 867.896 656.159, 843.304 592.926, 759.853 561.502, 810.817 "
fill = "none" stroke = "black"/>
</g>
<g>
<polygon points = "765.649, 773.308 754.557, 785.268 771.916, 857.519 905.309, 859.734 906.893, 857.481 907.969, 834.294 868.318, 781.440 778.843, 765.859 "
fill = "none" stroke = "black"/>
</g>
<g>
<polygon points = "940.807, 687.351 978.312, 796.099 979.604, 796.116 1000.000, 793.915 1000.000, 689.048 "
fill = "none" stroke = "black"/>
</g>
<g>
<polygon points = "163.673, 905.508 166.120, 922.609 213.953, 943.597 241.450, 928.952 255.027, 888.428 197.267, 854.850 "
fill = "none" stroke = "black"/>
</g>
<g>
<polygon points = "254.168, 409.958 237.546, 299.699 230.648, 296.220 197.683, 322.992 172.467, 360.346 169.190, 378.715 228.116, 440.096 240.166, 437.400 "
fill = "none" stroke = "black"/>
</g>
<g>
<polygon points = "709.125, 226.072 730.777, 212.137 735.077, 200.670 665.375, 174.149 661.110, 180.568 657.478, 213.103 665.478, 226.317 "
fill = "none" stroke = "black"/>
</g>
<g>
<polygon points = "706.842, 274.463 709.818, 270.142 709.125, 226.072 665.478, 226.317 663.192, 268.215 "
fill = "none" stroke = "black"/>
</g>
<g>
<polygon points = "679.475, 442.459 696.299, 437.347 714.599, 421.477 717.339, 354.381 687.005, 346.031 637.774, 343.428 636.168, 343.489 "
fill = "none" stroke = "black"/>
</g>
<g>
<polygon points = "30.007, 434.957 97.764, 421.943 107.662, 396.578 105.761, 394.058 54.197, 361.173 16.307, 365.588 0.000, 372.920 0.000, 433.652 "
fill = "none" stroke = "black"/>
</g>
<g>
<polygon points = "202.574, 630.529 204.445, 700.194 265.859, 669.689 "
fill = "none" stroke = "black"/>
</g>
<g>
<polygon points = "656.159, 843.304 641.367, 867.896 706.232, 937.929 746.367, 920.837 671.892, 835.553 "
fill = "none" stroke = "black"/>
</g>
<g>
<polygon points = "765.907, 422.189 714.599, 421.477 696.299, 437.347 743.526, 499.776 804.575, 494.825 804.488, 485.871 "
fill = "none" stroke = "black"/>
</g>
<g>
<polygon points = "566.392, 448.080 604.535, 431.137 576.299, 354.897 477.745, 404.285 476.327, 416.496 494.278, 434.581 "
fill = "none" stroke = "black"/>
</g>
<g>
<polygon points = "371.377, 228.050 357.258, 219.649 274.279, 301.456 306.630, 331.352 367.153, 339.904 372.569, 310.573 374.058, 239.107 "
fill = "none" stroke = "black"/>
</g>
<g>
<polygon points = "163.673, 905.508 197.267, 854.850 200.314, 842.237 187.364, 824.556 150.061, 812.340 117.723, 826.793 117.215, 877.328 "
fill = "none" stroke = "black"/>
</g>
<g>
<polygon points = "466.838, 163.377 530.857, 184.639 534.692, 157.972 518.893, 122.109 441.166, 119.633 445.178, 135.337 "
fill = "none" stroke = "black"/>
</g>
<g>
<polygon points = "816.121, 388.181 765.907, 422.189 804.488, 485.871 861.853, 422.764 "
fill = "none" stroke = "black"/>
</g>
<g>
<polygon points = "765.649, 773.308 778.843, 765.859 803.497, 662.156 705.680, 685.474 "
fill = "none" stroke = "black"/>
</g>
<g>
<polygon points = "147.538, 536.554 150.931, 536.525 191.949, 496.663 199.884, 473.512 162.423, 457.532 104.811, 447.250 94.060, 494.831 93.684, 521.553 "
fill = "none" stroke = "black"/>
</g>
<g>
<polygon points = "355.630, 399.710 289.957, 386.127 254.168, 409.958 240.166, 437.400 264.811, 451.902 334.901, 447.138 358.003, 434.706 361.623, 430.872 "
fill = "none" stroke = "black"/>
</g>
<g>
<polygon points = "606.286, 591.367 545.480, 559.839 483.748, 538.409 459.270, 553.668 492.438, 586.196 588.735, 622.023 "
fill = "none" stroke = "black"/>
</g>
<g>
<polygon points = "329.545, 673.382 326.894, 654.148 295.699, 614.522 225.887, 598.333 198.002, 614.266 196.382, 621.369 202.574, 630.529 265.859, 669.689 313.405, 688.771 "
fill = "none" stroke = "black"/>
</g>
<g>
<polygon points = "367.569, 580.044 430.827, 587.748 454.982, 553.836 423.561, 512.229 375.251, 518.565 "
fill = "none" stroke = "black"/>
</g>
<g>
<polygon points = "492.438, 586.196 459.270, 553.668 454.982, 553.836 430.827, 587.748 430.907, 655.767 457.513, 669.221 482.253, 654.695 "
fill = "none" stroke = "black"/>
</g>
<g>
<polygon points = "312.090, 873.987 258.577, 930.413 326.930, 967.787 335.234, 892.074 315.581, 874.263 "
fill = "none" stroke = "black"/>
</g>
<g>
<polygon points = "374.235, 768.013 394.290, 757.490 330.415, 673.487 329.545, 673.382 313.405, 688.771 309.643, 698.575 300.872, 753.737 307.322, 760.779 "
fill = "none" stroke = "black"/>
</g>
<g>
<polygon points = "687.005, 346.031 675.262, 316.951 637.774, 343.428 "
fill = "none" stroke = "black"/>
</g>
<g>
<polygon points = "562.660, 302.770 530.863, 208.509 477.459, 240.265 476.432, 306.884 "
fill = "none" stroke = "black"/>
</g>
<g>
<polygon points = "704.309, 77.907 737.054, 115.537 756.588, 117.531 774.020, 0.000 685.410, 0.000 "
fill = "none" stroke = "black"/>
</g>
<g>
<polygon points = "507.200, 56.511 420.230, 42.662 366.167, 54.035 369.336, 76.119 431.422, 106.715 505.904, 61.472 "
fill = "none" stroke = "black"/>
</g>
<g>
<polygon points = "330.351, 561.478 343.277, 517.042 332.394, 510.976 290.925, 515.432 285.706, 528.337 301.204, 559.852 "
fill = "none" stroke = "black"/>
</g>
<g>
<polygon points = "477.745, 404.285 576.299, 354.897 589.343, 322.046 562.660, 302.770 476.432, 306.884 470.457, 313.620 457.840, 363.089 "
fill = "none" stroke = "black"/>
</g>
<g>
<polygon points = "476.327, 416.496 477.745, 404.285 457.840, 363.089 370.907, 346.317 355.630, 399.710 361.623, 430.872 433.689, 446.193 "
fill = "none" stroke = "black"/>
</g>
<g>
<polygon points = "979.604, 796.116 978.312, 796.099 907.969, 834.294 906.893, 857.481 1000.000, 904.540 1000.000, 876.251 "
fill = "none" stroke = "black"/>
</g>
<g>
<polygon points = "608.379, 712.933 699.470, 679.304 713.532, 619.759 647.028, 592.727 612.009, 585.242 606.286, 591.367 588.735, 622.023 586.921, 629.641 600.153, 711.753 "
fill = "none" stroke = "black"/>
</g>
<g>
<polygon points = "566.392, 448.080 494.278, 434.581 500.717, 461.499 561.897, 492.805 "
fill = "none" stroke = "black"/>
</g>
<g>
<polygon points = "879.095, 979.550 827.000, 974.966 812.288, 1000.000 890.760, 1000.000 "
fill = "none" stroke = "black"/>
</g>
<g>
<polygon points = "237.546, 299.699 254.168, 409.958 289.957, 386.127 306.630, 331.352 274.279, 301.456 "
fill = "none" stroke = "black"/>
</g>
<g>
<polygon points = "507.200, 56.511 505.904, 61.472 520.635, 104.969 571.458, 89.134 561.667, 55.814 528.202, 16.638 "
fill = "none" stroke = "black"/>
</g>
<g>
<polygon points = "234.617, 58.562 239.068, 64.146 360.709, 41.516 356.353, 0.000 271.905, 0.000 "
fill = "none" stroke = "black"/>
</g>
<g>
<polygon points = "328.436, 177.323 329.112, 177.077 329.309, 163.833 222.834, 142.440 227.151, 166.134 "
fill = "none" stroke = "black"/>
</g>
<g>
<polygon points = "722.192, 538.447 649.218, 495.797 614.222, 556.741 612.009, 585.242 647.028, 592.727 "
fill = "none" stroke = "black"/>
</g>
<g>
<polygon points = "827.000, 974.966 816.535, 963.347 789.174, 1000.000 812.288, 1000.000 "
fill = "none" stroke = "black"/>
</g>
<g>
<polygon points = "230.648, 296.220 209.067, 241.585 198.151, 233.522 122.638, 207.560 95.518, 212.046 94.313, 268.291 97.788, 282.362 197.683, 322.992 "
fill = "none" stroke = "black"/>
</g>
<g>
<polygon points = "722.192, 538.447 647.028, 592.727 713.532, 619.759 757.490, 608.301 725.470, 538.797 "
fill = "none" stroke = "black"/>
</g>
<g>
<polygon points = "562.660, 302.770 589.343, 322.046 594.840, 320.094 612.453, 298.538 605.601, 225.337 593.168, 215.845 534.953, 199.956 530.863, 208.509 "
fill = "none" stroke = "black"/>
</g>
<g>
<polygon points = "931.281, 307.004 933.074, 311.301 1000.000, 354.010 1000.000, 259.759 "
fill = "none" stroke = "black"/>
</g>
<g>
<polygon points = "274.279, 301.456 357.258, 219.649 329.112, 177.077 328.436, 177.323 209.067, 241.585 230.648, 296.220 237.546, 299.699 "
fill = "none" stroke = "black"/>
</g>
<g>
<polygon points = "162.560, 927.636 89.389, 1000.000 184.986, 1000.000 "
fill = "none" stroke = "black"/>
</g>
<g>
<polygon points = "570.658, 987.198 573.134, 933.846 516.047, 887.373 465.310, 884.334 461.718, 888.336 508.408, 990.984 519.601, 1000.000 565.389, 1000.000 "
fill = "none" stroke = "black"/>
</g>
<g>
<polygon points = "105.882, 30.996 166.817, 141.084 193.767, 124.088 167.888, 53.292 "
fill = "none" stroke = "black"/>
</g>
<g>
<polygon points = "795.665, 271.711 830.654, 256.259 842.083, 224.488 779.692, 234.767 759.155, 253.516 "
fill = "none" stroke = "black"/>
</g>
<g>
<polygon points = "508.408, 990.984 422.999, 951.949 368.158, 1000.000 519.601, 1000.000 "
fill = "none" stroke = "black"/>
</g>
<g>
<polygon points = "649.218, 495.797 658.300, 456.242 604.535, 431.137 566.392, 448.080 561.897, 492.805 562.381, 498.475 568.453, 513.759 614.222, 556.741 "
fill = "none" stroke = "black"/>
</g>
<g>
<polygon points = "30.007, 434.957 94.060, 494.831 104.811, 447.250 97.764, 421.943 "
fill = "none" stroke = "black"/>
</g>
<g>
<polygon points = "419.346, 757.547 394.290, 757.490 374.235, 768.013 378.103, 790.083 460.567, 792.819 461.442, 791.410 461.152, 778.175 "
fill = "none" stroke = "black"/>
</g>
</svg>
